<svg width="34" height="34" viewBox="0 0 34 34" fill="none" xmlns="http://www.w3.org/2000/svg">
<path d="M2.08475 26.931L6.9661 31.8966L3.98305 32.4483L3.00391 32.6294L1 33L1.54237 29.9655L2.08475 26.931Z" fill="black"/>
<path d="M26.4915 2.65517L31.3729 7.06897L33 5.41379L32.4576 2.65517L30.8305 1H27.5763L26.4915 2.65517Z" fill="black"/>
<path d="M2.08475 26.931L6.9661 31.8966M2.08475 26.931L25.4068 3.75862M2.08475 26.931L1.54237 29.9655M1 33L1.54237 29.9655M1 33L1.54237 32.4483L2.76271 31.2069M1 33L3.00391 32.6294M6.9661 31.8966L29.7458 8.17241M6.9661 31.8966L3.98305 32.4483M1.54237 29.9655L2.76271 31.2069M1.54237 29.9655L3.00391 32.6294M3.98305 32.4483L2.76271 31.2069M3.98305 32.4483L3.00391 32.6294M31.3729 7.06897L26.4915 2.65517L27.5763 1H30.8305L32.4576 2.65517L33 5.41379L31.3729 7.06897Z" stroke="black"/>
</svg>
