<svg width="91" height="62" viewBox="0 0 91 62" fill="none" xmlns="http://www.w3.org/2000/svg">
<mask id="path-1-outside-1_16_17" maskUnits="userSpaceOnUse" x="0" y="26.3846" width="91" height="13" fill="black">
<rect fill="white" y="26.3846" width="91" height="13"/>
<path d="M9.93735 27.5978V30.4121H8.99074V30.0624C8.99074 29.6872 8.97937 29.4001 8.95663 29.2011C8.93389 28.9964 8.89409 28.8486 8.83724 28.7577C8.78607 28.661 8.715 28.607 8.62404 28.5956C8.53876 28.5786 8.43358 28.57 8.3085 28.57H4.09567V32.51H6.54321C6.58869 32.51 6.63133 32.5128 6.67113 32.5185C6.71661 32.5185 6.75925 32.5185 6.79905 32.5185C6.86727 32.5185 6.92697 32.5128 6.97813 32.5014C7.0293 32.4844 7.07194 32.4503 7.10605 32.3991C7.14017 32.3479 7.16575 32.2769 7.18281 32.1859C7.20555 32.0893 7.21976 31.9585 7.22545 31.7936H7.83094V34.1047H7.22545C7.21976 33.9285 7.2027 33.792 7.17428 33.6954C7.14585 33.5987 7.10321 33.5277 7.04636 33.4822C6.9895 33.4367 6.92128 33.4111 6.84169 33.4054C6.76209 33.394 6.66828 33.3884 6.56026 33.3884H4.09567V37.1833C4.09567 37.3255 4.11557 37.4363 4.15536 37.5159C4.19516 37.5898 4.2577 37.6467 4.34298 37.6865C4.42826 37.7206 4.54197 37.7405 4.6841 37.7462C4.82623 37.7519 4.99964 37.7547 5.20431 37.7547H5.66482V38.599C5.48857 38.599 5.31517 38.599 5.14461 38.599C4.97974 38.599 4.80633 38.599 4.6244 38.599C4.44816 38.599 4.2577 38.599 4.05303 38.599C3.84835 38.5933 3.62378 38.5876 3.37931 38.5819C3.11779 38.5819 2.88185 38.5848 2.67149 38.5904C2.46682 38.5904 2.27067 38.5904 2.08306 38.5904C1.90113 38.5904 1.72204 38.5933 1.54579 38.599C1.36955 38.599 1.18762 38.599 1 38.599V37.7547H1.99778C2.12285 37.7547 2.22235 37.7405 2.29626 37.7121C2.37017 37.6836 2.42418 37.641 2.45829 37.5841C2.4924 37.5273 2.5123 37.4562 2.51799 37.3709C2.52936 37.2857 2.53504 37.1862 2.53504 37.0725V29.2096C2.53504 29.0675 2.5322 28.9481 2.52651 28.8515C2.52651 28.7491 2.50946 28.6695 2.47535 28.6127C2.44123 28.5501 2.38722 28.5075 2.31331 28.4848C2.2394 28.4563 2.13423 28.4421 1.99778 28.4421H1.05117V27.5978H9.93735Z"/>
<path d="M15.4601 27.3846C15.7444 27.3846 15.9689 27.4557 16.1338 27.5978C16.2987 27.7343 16.3811 27.9248 16.3811 28.1692C16.3811 28.4194 16.2987 28.6184 16.1338 28.7662C15.9746 28.9083 15.75 28.9794 15.4601 28.9794C15.1758 28.9794 14.9541 28.9083 14.7949 28.7662C14.6357 28.624 14.5561 28.4251 14.5561 28.1692C14.5561 27.9248 14.6357 27.7343 14.7949 27.5978C14.9541 27.4557 15.1758 27.3846 15.4601 27.3846ZM16.3555 37.2686C16.3555 37.4051 16.3783 37.5131 16.4238 37.5927C16.4692 37.6666 16.5431 37.7234 16.6455 37.7632C16.7478 37.7973 16.8786 37.8201 17.0378 37.8315C17.2026 37.8371 17.4016 37.84 17.6347 37.84V38.599C17.4869 38.599 17.2879 38.599 17.0378 38.599C16.7876 38.5933 16.5375 38.5904 16.2873 38.5904C16.0372 38.5904 15.8154 38.5904 15.6221 38.5904C15.4288 38.5848 15.3151 38.5819 15.281 38.5819C14.9569 38.5819 14.6698 38.5848 14.4197 38.5904C14.1752 38.5961 13.9222 38.599 13.6607 38.599V37.84C13.9677 37.84 14.2065 37.8315 14.377 37.8144C14.5476 37.7973 14.6727 37.7689 14.7523 37.7291C14.8375 37.6893 14.8859 37.6353 14.8972 37.5671C14.9143 37.4932 14.9228 37.3994 14.9228 37.2857V32.0324C14.9228 31.9528 14.9001 31.8931 14.8546 31.8533C14.8148 31.8135 14.7466 31.7851 14.6499 31.768C14.5533 31.7453 14.4254 31.7339 14.2662 31.7339C14.1127 31.7282 13.9251 31.7254 13.7033 31.7254V30.9664C14.1866 30.9664 14.6414 30.9636 15.0678 30.9579C15.4942 30.9522 15.9234 30.9408 16.3555 30.9238V37.2686Z"/>
<path d="M21.7418 37.84C22.0602 37.84 22.3075 37.8343 22.4838 37.8229C22.66 37.8116 22.7908 37.7888 22.876 37.7547C22.9613 37.7206 23.0125 37.6751 23.0296 37.6183C23.0466 37.5614 23.0551 37.4875 23.0551 37.3965V32.0068C23.0551 31.9386 23.0352 31.8846 22.9954 31.8448C22.9613 31.805 22.8959 31.7766 22.7993 31.7595C22.7083 31.7425 22.5804 31.7339 22.4155 31.7339C22.2563 31.7282 22.046 31.7254 21.7845 31.7254V30.9664C22.2905 30.9664 22.7567 30.9636 23.1831 30.9579C23.6095 30.9522 24.0273 30.9408 24.4367 30.9238V32.1262C24.8233 31.6884 25.2667 31.3559 25.767 31.1284C26.273 30.8953 26.8103 30.7759 27.3788 30.7703C28.2089 30.7759 28.8457 31.0034 29.2891 31.4525C29.7326 31.896 29.9543 32.6009 29.9543 33.5675V37.4903C29.9543 37.5813 29.9742 37.6495 30.014 37.695C30.0538 37.7405 30.1192 37.7746 30.2101 37.7973C30.3068 37.8144 30.4319 37.8258 30.5854 37.8315C30.7389 37.8315 30.9265 37.8343 31.1482 37.84V38.599C31.0118 38.599 30.8753 38.599 30.7389 38.599C30.6081 38.599 30.4688 38.599 30.321 38.599C30.1789 38.599 30.0254 38.599 29.8605 38.599C29.7013 38.5933 29.5222 38.5876 29.3232 38.5819C28.9082 38.5819 28.5358 38.5848 28.2061 38.5904C27.8763 38.5961 27.5466 38.599 27.2168 38.599V37.84C27.5409 37.84 27.791 37.8343 27.9673 37.8229C28.1435 37.8116 28.2714 37.7917 28.351 37.7632C28.4306 37.7291 28.4761 37.6893 28.4875 37.6438C28.5045 37.5927 28.5131 37.5273 28.5131 37.4477V34.0621C28.5131 33.6812 28.4903 33.3372 28.4448 33.0302C28.405 32.7175 28.3254 32.4617 28.2061 32.2627C28.0923 32.0637 27.9332 31.9159 27.7285 31.8192C27.5295 31.7169 27.2708 31.6629 26.9524 31.6572C26.6454 31.6629 26.364 31.714 26.1082 31.8107C25.8523 31.9073 25.6221 32.0267 25.4174 32.1689C25.2184 32.3053 25.0422 32.4531 24.8887 32.6123C24.7408 32.7658 24.6129 32.9108 24.5049 33.0472C24.4878 33.468 24.4793 33.9 24.4793 34.3435V37.4392C24.4793 37.5415 24.5021 37.6211 24.5475 37.6779C24.5987 37.7291 24.6755 37.7689 24.7778 37.7973C24.8858 37.8201 25.0194 37.8343 25.1786 37.84C25.3435 37.84 25.5425 37.84 25.7756 37.84V38.599C25.6278 38.599 25.4828 38.599 25.3406 38.599C25.1985 38.599 25.0507 38.599 24.8972 38.599C24.7494 38.599 24.5873 38.599 24.4111 38.599C24.2405 38.5933 24.0529 38.5876 23.8482 38.5819C23.4218 38.5819 23.0438 38.5848 22.714 38.5904C22.3843 38.5961 22.0602 38.599 21.7418 38.599V37.84Z"/>
<path d="M42.4871 36.6887C42.4871 36.9843 42.4956 37.2118 42.5126 37.3709C42.5354 37.5244 42.5752 37.6382 42.632 37.7121C42.6889 37.7803 42.7685 37.8201 42.8708 37.8315C42.9788 37.8371 43.1181 37.84 43.2887 37.84H43.6724V38.599C43.2233 38.599 42.777 38.6018 42.3336 38.6075C41.8958 38.6132 41.4864 38.6217 41.1055 38.6331V37.4647C40.7644 37.9025 40.3579 38.2323 39.886 38.454C39.4198 38.67 38.874 38.7781 38.2486 38.7781C37.8393 38.7781 37.4697 38.7184 37.14 38.599C36.8102 38.4853 36.5288 38.3261 36.2957 38.1214C36.0626 37.9167 35.8807 37.6723 35.7499 37.388C35.6249 37.1037 35.5623 36.791 35.5623 36.4499C35.5623 36.0861 35.6362 35.7563 35.784 35.4607C35.9319 35.1593 36.1479 34.9035 36.4322 34.6931C36.7164 34.4828 37.0604 34.3208 37.4641 34.2071C37.8734 34.0877 38.3396 34.028 38.8627 34.028C39.2208 34.028 39.5818 34.0564 39.9457 34.1132C40.3096 34.1644 40.6791 34.2383 41.0544 34.335V33.1069C41.0544 32.5896 40.8809 32.1944 40.5341 31.9215C40.193 31.6486 39.6671 31.5122 38.9565 31.5122C38.3595 31.5122 37.8905 31.6287 37.5493 31.8618C37.2139 32.0893 36.9893 32.4446 36.8756 32.9278L36.091 32.834L36.2019 31.3331C36.5658 31.1682 36.9893 31.0346 37.4726 30.9323C37.9615 30.8243 38.5102 30.7703 39.1185 30.7703C39.7211 30.7703 40.2357 30.8243 40.6621 30.9323C41.0885 31.0403 41.4353 31.2052 41.7025 31.4269C41.9754 31.6486 42.1744 31.9329 42.2994 32.2797C42.4245 32.6208 42.4871 33.0245 42.4871 33.4907V36.6887ZM39.1867 34.7443C38.8456 34.7443 38.5386 34.7841 38.2657 34.8637C37.9928 34.9376 37.7597 35.0456 37.5664 35.1878C37.3788 35.3299 37.2338 35.5033 37.1315 35.708C37.0291 35.9127 36.978 36.1458 36.978 36.4073C36.978 36.6404 37.0178 36.8479 37.0974 37.0298C37.1826 37.2061 37.2992 37.3567 37.447 37.4818C37.6005 37.6069 37.7824 37.7064 37.9928 37.7803C38.2032 37.8542 38.4334 37.8883 38.6836 37.8826C38.9565 37.8883 39.2322 37.8485 39.5108 37.7632C39.795 37.6723 40.0509 37.5472 40.2783 37.388C40.5057 37.2231 40.6905 37.0185 40.8326 36.774C40.9804 36.5238 41.0544 36.2253 41.0544 35.8785V35.0428C40.7132 34.9461 40.3892 34.8722 40.0822 34.8211C39.7752 34.7699 39.4767 34.7443 39.1867 34.7443Z"/>
<path d="M47.6772 37.84C47.9956 37.84 48.2429 37.8343 48.4191 37.8229C48.5954 37.8116 48.7262 37.7888 48.8114 37.7547C48.8967 37.7206 48.9479 37.6751 48.9649 37.6183C48.982 37.5614 48.9905 37.4875 48.9905 37.3965V32.0068C48.9905 31.9386 48.9706 31.8846 48.9308 31.8448C48.8967 31.805 48.8313 31.7766 48.7347 31.7595C48.6437 31.7425 48.5158 31.7339 48.3509 31.7339C48.1917 31.7282 47.9814 31.7254 47.7198 31.7254V30.9664C48.2258 30.9664 48.692 30.9636 49.1184 30.9579C49.5448 30.9522 49.9627 30.9408 50.3721 30.9238V32.1262C50.7587 31.6884 51.2021 31.3559 51.7024 31.1284C52.2084 30.8953 52.7457 30.7759 53.3142 30.7703C54.1443 30.7759 54.781 31.0034 55.2245 31.4525C55.6679 31.896 55.8897 32.6009 55.8897 33.5675V37.4903C55.8897 37.5813 55.9096 37.6495 55.9494 37.695C55.9892 37.7405 56.0546 37.7746 56.1455 37.7973C56.2422 37.8144 56.3672 37.8258 56.5207 37.8315C56.6743 37.8315 56.8619 37.8343 57.0836 37.84V38.599C56.9472 38.599 56.8107 38.599 56.6743 38.599C56.5435 38.599 56.4042 38.599 56.2564 38.599C56.1142 38.599 55.9607 38.599 55.7959 38.599C55.6367 38.5933 55.4576 38.5876 55.2586 38.5819C54.8436 38.5819 54.4712 38.5848 54.1414 38.5904C53.8117 38.5961 53.4819 38.599 53.1522 38.599V37.84C53.4762 37.84 53.7264 37.8343 53.9026 37.8229C54.0789 37.8116 54.2068 37.7917 54.2864 37.7632C54.366 37.7291 54.4115 37.6893 54.4229 37.6438C54.4399 37.5927 54.4484 37.5273 54.4484 37.4477V34.0621C54.4484 33.6812 54.4257 33.3372 54.3802 33.0302C54.3404 32.7175 54.2608 32.4617 54.1414 32.2627C54.0277 32.0637 53.8685 31.9159 53.6639 31.8192C53.4649 31.7169 53.2062 31.6629 52.8878 31.6572C52.5808 31.6629 52.2994 31.714 52.0435 31.8107C51.7877 31.9073 51.5574 32.0267 51.3528 32.1689C51.1538 32.3053 50.9775 32.4531 50.824 32.6123C50.6762 32.7658 50.5483 32.9108 50.4403 33.0472C50.4232 33.468 50.4147 33.9 50.4147 34.3435V37.4392C50.4147 37.5415 50.4374 37.6211 50.4829 37.6779C50.5341 37.7291 50.6108 37.7689 50.7132 37.7973C50.8212 37.8201 50.9548 37.8343 51.114 37.84C51.2789 37.84 51.4779 37.84 51.711 37.84V38.599C51.5631 38.599 51.4182 38.599 51.276 38.599C51.1339 38.599 50.9861 38.599 50.8326 38.599C50.6847 38.599 50.5227 38.599 50.3465 38.599C50.1759 38.5933 49.9883 38.5876 49.7836 38.5819C49.3572 38.5819 48.9791 38.5848 48.6494 38.5904C48.3196 38.5961 47.9956 38.599 47.6772 38.599V37.84Z"/>
<path d="M68.5589 33.6868H67.7231C67.6947 32.9989 67.49 32.4901 67.1091 32.1603C66.7339 31.8249 66.2137 31.6572 65.5485 31.6572C65.1448 31.6572 64.7838 31.7311 64.4654 31.8789C64.1471 32.021 63.877 32.2257 63.6553 32.4929C63.4392 32.7601 63.2715 33.087 63.1521 33.4736C63.0384 33.8602 62.9816 34.2952 62.9816 34.7784C62.9816 35.2674 63.0413 35.6966 63.1607 36.0662C63.28 36.43 63.4506 36.7512 63.6723 37.0298C63.8997 37.3027 64.1726 37.5131 64.491 37.6609C64.8094 37.8087 65.1676 37.8826 65.5656 37.8826C66.1341 37.8826 66.6088 37.7433 66.9897 37.4647C67.3763 37.1862 67.6464 36.7683 67.7999 36.2111L68.7977 36.3817C68.7067 36.774 68.5617 37.1236 68.3627 37.4306C68.1694 37.732 67.9278 37.9764 67.6379 38.164C67.3479 38.3517 67.0153 38.4995 66.6401 38.6075C66.2648 38.7212 65.8527 38.7781 65.4035 38.7781C64.8066 38.7781 64.2665 38.6843 63.7832 38.4966C63.2999 38.3033 62.8878 38.0418 62.5466 37.7121C62.2055 37.3823 61.9412 36.973 61.7535 36.484C61.5659 35.9894 61.4721 35.4408 61.4721 34.8381C61.4721 34.2696 61.5631 33.7409 61.745 33.2519C61.9269 32.7573 62.1828 32.328 62.5125 31.9642C62.848 31.6003 63.2431 31.3104 63.6979 31.0943C64.1584 30.8783 64.6673 30.7703 65.2244 30.7703C65.4518 30.7703 65.6764 30.7845 65.8981 30.8129C66.1199 30.8413 66.3302 30.8897 66.5292 30.9579C66.7339 31.0261 66.9215 31.1199 67.0921 31.2393C67.2683 31.3587 67.4247 31.5065 67.5611 31.6828L67.7743 31.009C67.7971 31.009 67.8454 31.0119 67.9193 31.0176C67.9989 31.0176 68.0813 31.0176 68.1666 31.0176C68.2519 31.0176 68.3315 31.0204 68.4054 31.0261C68.485 31.0261 68.5361 31.0261 68.5589 31.0261V33.6868Z"/>
<path d="M75.1903 27.3846C75.4745 27.3846 75.6991 27.4557 75.864 27.5978C76.0288 27.7343 76.1113 27.9248 76.1113 28.1692C76.1113 28.4194 76.0288 28.6184 75.864 28.7662C75.7048 28.9083 75.4802 28.9794 75.1903 28.9794C74.906 28.9794 74.6843 28.9083 74.5251 28.7662C74.3659 28.624 74.2863 28.4251 74.2863 28.1692C74.2863 27.9248 74.3659 27.7343 74.5251 27.5978C74.6843 27.4557 74.906 27.3846 75.1903 27.3846ZM76.0857 37.2686C76.0857 37.4051 76.1084 37.5131 76.1539 37.5927C76.1994 37.6666 76.2733 37.7234 76.3757 37.7632C76.478 37.7973 76.6088 37.8201 76.7679 37.8315C76.9328 37.8371 77.1318 37.84 77.3649 37.84V38.599C77.2171 38.599 77.0181 38.599 76.7679 38.599C76.5178 38.5933 76.2676 38.5904 76.0175 38.5904C75.7673 38.5904 75.5456 38.5904 75.3523 38.5904C75.159 38.5848 75.0453 38.5819 75.0112 38.5819C74.6871 38.5819 74.4 38.5848 74.1498 38.5904C73.9054 38.5961 73.6524 38.599 73.3909 38.599V37.84C73.6979 37.84 73.9366 37.8315 74.1072 37.8144C74.2778 37.7973 74.4028 37.7689 74.4824 37.7291C74.5677 37.6893 74.616 37.6353 74.6274 37.5671C74.6445 37.4932 74.653 37.3994 74.653 37.2857V32.0324C74.653 31.9528 74.6303 31.8931 74.5848 31.8533C74.545 31.8135 74.4768 31.7851 74.3801 31.768C74.2834 31.7453 74.1555 31.7339 73.9963 31.7339C73.8428 31.7282 73.6552 31.7254 73.4335 31.7254V30.9664C73.9167 30.9664 74.3716 30.9636 74.798 30.9579C75.2244 30.9522 75.6536 30.9408 76.0857 30.9238V37.2686Z"/>
<path d="M85.9236 30.7703C86.5206 30.7703 87.0692 30.8641 87.5695 31.0517C88.0698 31.2393 88.4991 31.5094 88.8572 31.8618C89.2211 32.2143 89.5025 32.6407 89.7015 33.141C89.9005 33.6414 90 34.19 90 34.787C90 35.3612 89.9005 35.8984 89.7015 36.3987C89.5025 36.8934 89.224 37.3169 88.8658 37.6694C88.5076 38.0219 88.0784 38.2948 87.578 38.4881C87.0777 38.6814 86.5263 38.7781 85.9236 38.7781C85.321 38.7781 84.7695 38.6843 84.2692 38.4966C83.7746 38.3033 83.3482 38.0304 82.99 37.6779C82.6318 37.3198 82.3532 36.8934 82.1542 36.3987C81.9609 35.8984 81.8643 35.3612 81.8643 34.787C81.8643 34.19 81.9638 33.6442 82.1628 33.1496C82.3617 32.6493 82.6403 32.2229 82.9985 31.8704C83.3567 31.5122 83.7831 31.2393 84.2777 31.0517C84.778 30.8641 85.3267 30.7703 85.9236 30.7703ZM85.9236 31.6572C85.5256 31.6572 85.1675 31.7311 84.8491 31.8789C84.5307 32.0267 84.2578 32.2342 84.0304 32.5014C83.8087 32.7687 83.6381 33.0984 83.5187 33.4907C83.3993 33.8773 83.3396 34.3065 83.3396 34.7784C83.3396 35.2219 83.3993 35.6398 83.5187 36.032C83.6438 36.4186 83.8172 36.7512 84.0389 37.0298C84.2663 37.3027 84.5392 37.5131 84.8576 37.6609C85.176 37.8087 85.5313 37.8826 85.9236 37.8826C86.3159 37.8826 86.6712 37.8087 86.9896 37.6609C87.308 37.5131 87.5809 37.3027 87.8083 37.0298C88.0357 36.7512 88.2091 36.4186 88.3285 36.032C88.4536 35.6398 88.5161 35.2219 88.5161 34.7784C88.5161 34.3122 88.4536 33.883 88.3285 33.4907C88.2091 33.0984 88.0357 32.7687 87.8083 32.5014C87.5866 32.2342 87.3137 32.0267 86.9896 31.8789C86.6712 31.7311 86.3159 31.6572 85.9236 31.6572Z"/>
</mask>
<path d="M9.93735 27.5978V30.4121H8.99074V30.0624C8.99074 29.6872 8.97937 29.4001 8.95663 29.2011C8.93389 28.9964 8.89409 28.8486 8.83724 28.7577C8.78607 28.661 8.715 28.607 8.62404 28.5956C8.53876 28.5786 8.43358 28.57 8.3085 28.57H4.09567V32.51H6.54321C6.58869 32.51 6.63133 32.5128 6.67113 32.5185C6.71661 32.5185 6.75925 32.5185 6.79905 32.5185C6.86727 32.5185 6.92697 32.5128 6.97813 32.5014C7.0293 32.4844 7.07194 32.4503 7.10605 32.3991C7.14017 32.3479 7.16575 32.2769 7.18281 32.1859C7.20555 32.0893 7.21976 31.9585 7.22545 31.7936H7.83094V34.1047H7.22545C7.21976 33.9285 7.2027 33.792 7.17428 33.6954C7.14585 33.5987 7.10321 33.5277 7.04636 33.4822C6.9895 33.4367 6.92128 33.4111 6.84169 33.4054C6.76209 33.394 6.66828 33.3884 6.56026 33.3884H4.09567V37.1833C4.09567 37.3255 4.11557 37.4363 4.15536 37.5159C4.19516 37.5898 4.2577 37.6467 4.34298 37.6865C4.42826 37.7206 4.54197 37.7405 4.6841 37.7462C4.82623 37.7519 4.99964 37.7547 5.20431 37.7547H5.66482V38.599C5.48857 38.599 5.31517 38.599 5.14461 38.599C4.97974 38.599 4.80633 38.599 4.6244 38.599C4.44816 38.599 4.2577 38.599 4.05303 38.599C3.84835 38.5933 3.62378 38.5876 3.37931 38.5819C3.11779 38.5819 2.88185 38.5848 2.67149 38.5904C2.46682 38.5904 2.27067 38.5904 2.08306 38.5904C1.90113 38.5904 1.72204 38.5933 1.54579 38.599C1.36955 38.599 1.18762 38.599 1 38.599V37.7547H1.99778C2.12285 37.7547 2.22235 37.7405 2.29626 37.7121C2.37017 37.6836 2.42418 37.641 2.45829 37.5841C2.4924 37.5273 2.5123 37.4562 2.51799 37.3709C2.52936 37.2857 2.53504 37.1862 2.53504 37.0725V29.2096C2.53504 29.0675 2.5322 28.9481 2.52651 28.8515C2.52651 28.7491 2.50946 28.6695 2.47535 28.6127C2.44123 28.5501 2.38722 28.5075 2.31331 28.4848C2.2394 28.4563 2.13423 28.4421 1.99778 28.4421H1.05117V27.5978H9.93735Z" fill="#4D52BC"/>
<path d="M15.4601 27.3846C15.7444 27.3846 15.9689 27.4557 16.1338 27.5978C16.2987 27.7343 16.3811 27.9248 16.3811 28.1692C16.3811 28.4194 16.2987 28.6184 16.1338 28.7662C15.9746 28.9083 15.75 28.9794 15.4601 28.9794C15.1758 28.9794 14.9541 28.9083 14.7949 28.7662C14.6357 28.624 14.5561 28.4251 14.5561 28.1692C14.5561 27.9248 14.6357 27.7343 14.7949 27.5978C14.9541 27.4557 15.1758 27.3846 15.4601 27.3846ZM16.3555 37.2686C16.3555 37.4051 16.3783 37.5131 16.4238 37.5927C16.4692 37.6666 16.5431 37.7234 16.6455 37.7632C16.7478 37.7973 16.8786 37.8201 17.0378 37.8315C17.2026 37.8371 17.4016 37.84 17.6347 37.84V38.599C17.4869 38.599 17.2879 38.599 17.0378 38.599C16.7876 38.5933 16.5375 38.5904 16.2873 38.5904C16.0372 38.5904 15.8154 38.5904 15.6221 38.5904C15.4288 38.5848 15.3151 38.5819 15.281 38.5819C14.9569 38.5819 14.6698 38.5848 14.4197 38.5904C14.1752 38.5961 13.9222 38.599 13.6607 38.599V37.84C13.9677 37.84 14.2065 37.8315 14.377 37.8144C14.5476 37.7973 14.6727 37.7689 14.7523 37.7291C14.8375 37.6893 14.8859 37.6353 14.8972 37.5671C14.9143 37.4932 14.9228 37.3994 14.9228 37.2857V32.0324C14.9228 31.9528 14.9001 31.8931 14.8546 31.8533C14.8148 31.8135 14.7466 31.7851 14.6499 31.768C14.5533 31.7453 14.4254 31.7339 14.2662 31.7339C14.1127 31.7282 13.9251 31.7254 13.7033 31.7254V30.9664C14.1866 30.9664 14.6414 30.9636 15.0678 30.9579C15.4942 30.9522 15.9234 30.9408 16.3555 30.9238V37.2686Z" fill="#4D52BC"/>
<path d="M21.7418 37.84C22.0602 37.84 22.3075 37.8343 22.4838 37.8229C22.66 37.8116 22.7908 37.7888 22.876 37.7547C22.9613 37.7206 23.0125 37.6751 23.0296 37.6183C23.0466 37.5614 23.0551 37.4875 23.0551 37.3965V32.0068C23.0551 31.9386 23.0352 31.8846 22.9954 31.8448C22.9613 31.805 22.8959 31.7766 22.7993 31.7595C22.7083 31.7425 22.5804 31.7339 22.4155 31.7339C22.2563 31.7282 22.046 31.7254 21.7845 31.7254V30.9664C22.2905 30.9664 22.7567 30.9636 23.1831 30.9579C23.6095 30.9522 24.0273 30.9408 24.4367 30.9238V32.1262C24.8233 31.6884 25.2667 31.3559 25.767 31.1284C26.273 30.8953 26.8103 30.7759 27.3788 30.7703C28.2089 30.7759 28.8457 31.0034 29.2891 31.4525C29.7326 31.896 29.9543 32.6009 29.9543 33.5675V37.4903C29.9543 37.5813 29.9742 37.6495 30.014 37.695C30.0538 37.7405 30.1192 37.7746 30.2101 37.7973C30.3068 37.8144 30.4319 37.8258 30.5854 37.8315C30.7389 37.8315 30.9265 37.8343 31.1482 37.84V38.599C31.0118 38.599 30.8753 38.599 30.7389 38.599C30.6081 38.599 30.4688 38.599 30.321 38.599C30.1789 38.599 30.0254 38.599 29.8605 38.599C29.7013 38.5933 29.5222 38.5876 29.3232 38.5819C28.9082 38.5819 28.5358 38.5848 28.2061 38.5904C27.8763 38.5961 27.5466 38.599 27.2168 38.599V37.84C27.5409 37.84 27.791 37.8343 27.9673 37.8229C28.1435 37.8116 28.2714 37.7917 28.351 37.7632C28.4306 37.7291 28.4761 37.6893 28.4875 37.6438C28.5045 37.5927 28.5131 37.5273 28.5131 37.4477V34.0621C28.5131 33.6812 28.4903 33.3372 28.4448 33.0302C28.405 32.7175 28.3254 32.4617 28.2061 32.2627C28.0923 32.0637 27.9332 31.9159 27.7285 31.8192C27.5295 31.7169 27.2708 31.6629 26.9524 31.6572C26.6454 31.6629 26.364 31.714 26.1082 31.8107C25.8523 31.9073 25.6221 32.0267 25.4174 32.1689C25.2184 32.3053 25.0422 32.4531 24.8887 32.6123C24.7408 32.7658 24.6129 32.9108 24.5049 33.0472C24.4878 33.468 24.4793 33.9 24.4793 34.3435V37.4392C24.4793 37.5415 24.5021 37.6211 24.5475 37.6779C24.5987 37.7291 24.6755 37.7689 24.7778 37.7973C24.8858 37.8201 25.0194 37.8343 25.1786 37.84C25.3435 37.84 25.5425 37.84 25.7756 37.84V38.599C25.6278 38.599 25.4828 38.599 25.3406 38.599C25.1985 38.599 25.0507 38.599 24.8972 38.599C24.7494 38.599 24.5873 38.599 24.4111 38.599C24.2405 38.5933 24.0529 38.5876 23.8482 38.5819C23.4218 38.5819 23.0438 38.5848 22.714 38.5904C22.3843 38.5961 22.0602 38.599 21.7418 38.599V37.84Z" fill="#4D52BC"/>
<path d="M42.4871 36.6887C42.4871 36.9843 42.4956 37.2118 42.5126 37.3709C42.5354 37.5244 42.5752 37.6382 42.632 37.7121C42.6889 37.7803 42.7685 37.8201 42.8708 37.8315C42.9788 37.8371 43.1181 37.84 43.2887 37.84H43.6724V38.599C43.2233 38.599 42.777 38.6018 42.3336 38.6075C41.8958 38.6132 41.4864 38.6217 41.1055 38.6331V37.4647C40.7644 37.9025 40.3579 38.2323 39.886 38.454C39.4198 38.67 38.874 38.7781 38.2486 38.7781C37.8393 38.7781 37.4697 38.7184 37.14 38.599C36.8102 38.4853 36.5288 38.3261 36.2957 38.1214C36.0626 37.9167 35.8807 37.6723 35.7499 37.388C35.6249 37.1037 35.5623 36.791 35.5623 36.4499C35.5623 36.0861 35.6362 35.7563 35.784 35.4607C35.9319 35.1593 36.1479 34.9035 36.4322 34.6931C36.7164 34.4828 37.0604 34.3208 37.4641 34.2071C37.8734 34.0877 38.3396 34.028 38.8627 34.028C39.2208 34.028 39.5818 34.0564 39.9457 34.1132C40.3096 34.1644 40.6791 34.2383 41.0544 34.335V33.1069C41.0544 32.5896 40.8809 32.1944 40.5341 31.9215C40.193 31.6486 39.6671 31.5122 38.9565 31.5122C38.3595 31.5122 37.8905 31.6287 37.5493 31.8618C37.2139 32.0893 36.9893 32.4446 36.8756 32.9278L36.091 32.834L36.2019 31.3331C36.5658 31.1682 36.9893 31.0346 37.4726 30.9323C37.9615 30.8243 38.5102 30.7703 39.1185 30.7703C39.7211 30.7703 40.2357 30.8243 40.6621 30.9323C41.0885 31.0403 41.4353 31.2052 41.7025 31.4269C41.9754 31.6486 42.1744 31.9329 42.2994 32.2797C42.4245 32.6208 42.4871 33.0245 42.4871 33.4907V36.6887ZM39.1867 34.7443C38.8456 34.7443 38.5386 34.7841 38.2657 34.8637C37.9928 34.9376 37.7597 35.0456 37.5664 35.1878C37.3788 35.3299 37.2338 35.5033 37.1315 35.708C37.0291 35.9127 36.978 36.1458 36.978 36.4073C36.978 36.6404 37.0178 36.8479 37.0974 37.0298C37.1826 37.2061 37.2992 37.3567 37.447 37.4818C37.6005 37.6069 37.7824 37.7064 37.9928 37.7803C38.2032 37.8542 38.4334 37.8883 38.6836 37.8826C38.9565 37.8883 39.2322 37.8485 39.5108 37.7632C39.795 37.6723 40.0509 37.5472 40.2783 37.388C40.5057 37.2231 40.6905 37.0185 40.8326 36.774C40.9804 36.5238 41.0544 36.2253 41.0544 35.8785V35.0428C40.7132 34.9461 40.3892 34.8722 40.0822 34.8211C39.7752 34.7699 39.4767 34.7443 39.1867 34.7443Z" fill="#4D52BC"/>
<path d="M47.6772 37.84C47.9956 37.84 48.2429 37.8343 48.4191 37.8229C48.5954 37.8116 48.7262 37.7888 48.8114 37.7547C48.8967 37.7206 48.9479 37.6751 48.9649 37.6183C48.982 37.5614 48.9905 37.4875 48.9905 37.3965V32.0068C48.9905 31.9386 48.9706 31.8846 48.9308 31.8448C48.8967 31.805 48.8313 31.7766 48.7347 31.7595C48.6437 31.7425 48.5158 31.7339 48.3509 31.7339C48.1917 31.7282 47.9814 31.7254 47.7198 31.7254V30.9664C48.2258 30.9664 48.692 30.9636 49.1184 30.9579C49.5448 30.9522 49.9627 30.9408 50.3721 30.9238V32.1262C50.7587 31.6884 51.2021 31.3559 51.7024 31.1284C52.2084 30.8953 52.7457 30.7759 53.3142 30.7703C54.1443 30.7759 54.781 31.0034 55.2245 31.4525C55.6679 31.896 55.8897 32.6009 55.8897 33.5675V37.4903C55.8897 37.5813 55.9096 37.6495 55.9494 37.695C55.9892 37.7405 56.0546 37.7746 56.1455 37.7973C56.2422 37.8144 56.3672 37.8258 56.5207 37.8315C56.6743 37.8315 56.8619 37.8343 57.0836 37.84V38.599C56.9472 38.599 56.8107 38.599 56.6743 38.599C56.5435 38.599 56.4042 38.599 56.2564 38.599C56.1142 38.599 55.9607 38.599 55.7959 38.599C55.6367 38.5933 55.4576 38.5876 55.2586 38.5819C54.8436 38.5819 54.4712 38.5848 54.1414 38.5904C53.8117 38.5961 53.4819 38.599 53.1522 38.599V37.84C53.4762 37.84 53.7264 37.8343 53.9026 37.8229C54.0789 37.8116 54.2068 37.7917 54.2864 37.7632C54.366 37.7291 54.4115 37.6893 54.4229 37.6438C54.4399 37.5927 54.4484 37.5273 54.4484 37.4477V34.0621C54.4484 33.6812 54.4257 33.3372 54.3802 33.0302C54.3404 32.7175 54.2608 32.4617 54.1414 32.2627C54.0277 32.0637 53.8685 31.9159 53.6639 31.8192C53.4649 31.7169 53.2062 31.6629 52.8878 31.6572C52.5808 31.6629 52.2994 31.714 52.0435 31.8107C51.7877 31.9073 51.5574 32.0267 51.3528 32.1689C51.1538 32.3053 50.9775 32.4531 50.824 32.6123C50.6762 32.7658 50.5483 32.9108 50.4403 33.0472C50.4232 33.468 50.4147 33.9 50.4147 34.3435V37.4392C50.4147 37.5415 50.4374 37.6211 50.4829 37.6779C50.5341 37.7291 50.6108 37.7689 50.7132 37.7973C50.8212 37.8201 50.9548 37.8343 51.114 37.84C51.2789 37.84 51.4779 37.84 51.711 37.84V38.599C51.5631 38.599 51.4182 38.599 51.276 38.599C51.1339 38.599 50.9861 38.599 50.8326 38.599C50.6847 38.599 50.5227 38.599 50.3465 38.599C50.1759 38.5933 49.9883 38.5876 49.7836 38.5819C49.3572 38.5819 48.9791 38.5848 48.6494 38.5904C48.3196 38.5961 47.9956 38.599 47.6772 38.599V37.84Z" fill="#4D52BC"/>
<path d="M68.5589 33.6868H67.7231C67.6947 32.9989 67.49 32.4901 67.1091 32.1603C66.7339 31.8249 66.2137 31.6572 65.5485 31.6572C65.1448 31.6572 64.7838 31.7311 64.4654 31.8789C64.1471 32.021 63.877 32.2257 63.6553 32.4929C63.4392 32.7601 63.2715 33.087 63.1521 33.4736C63.0384 33.8602 62.9816 34.2952 62.9816 34.7784C62.9816 35.2674 63.0413 35.6966 63.1607 36.0662C63.28 36.43 63.4506 36.7512 63.6723 37.0298C63.8997 37.3027 64.1726 37.5131 64.491 37.6609C64.8094 37.8087 65.1676 37.8826 65.5656 37.8826C66.1341 37.8826 66.6088 37.7433 66.9897 37.4647C67.3763 37.1862 67.6464 36.7683 67.7999 36.2111L68.7977 36.3817C68.7067 36.774 68.5617 37.1236 68.3627 37.4306C68.1694 37.732 67.9278 37.9764 67.6379 38.164C67.3479 38.3517 67.0153 38.4995 66.6401 38.6075C66.2648 38.7212 65.8527 38.7781 65.4035 38.7781C64.8066 38.7781 64.2665 38.6843 63.7832 38.4966C63.2999 38.3033 62.8878 38.0418 62.5466 37.7121C62.2055 37.3823 61.9412 36.973 61.7535 36.484C61.5659 35.9894 61.4721 35.4408 61.4721 34.8381C61.4721 34.2696 61.5631 33.7409 61.745 33.2519C61.9269 32.7573 62.1828 32.328 62.5125 31.9642C62.848 31.6003 63.2431 31.3104 63.6979 31.0943C64.1584 30.8783 64.6673 30.7703 65.2244 30.7703C65.4518 30.7703 65.6764 30.7845 65.8981 30.8129C66.1199 30.8413 66.3302 30.8897 66.5292 30.9579C66.7339 31.0261 66.9215 31.1199 67.0921 31.2393C67.2683 31.3587 67.4247 31.5065 67.5611 31.6828L67.7743 31.009C67.7971 31.009 67.8454 31.0119 67.9193 31.0176C67.9989 31.0176 68.0813 31.0176 68.1666 31.0176C68.2519 31.0176 68.3315 31.0204 68.4054 31.0261C68.485 31.0261 68.5361 31.0261 68.5589 31.0261V33.6868Z" fill="#4D52BC"/>
<path d="M75.1903 27.3846C75.4745 27.3846 75.6991 27.4557 75.864 27.5978C76.0288 27.7343 76.1113 27.9248 76.1113 28.1692C76.1113 28.4194 76.0288 28.6184 75.864 28.7662C75.7048 28.9083 75.4802 28.9794 75.1903 28.9794C74.906 28.9794 74.6843 28.9083 74.5251 28.7662C74.3659 28.624 74.2863 28.4251 74.2863 28.1692C74.2863 27.9248 74.3659 27.7343 74.5251 27.5978C74.6843 27.4557 74.906 27.3846 75.1903 27.3846ZM76.0857 37.2686C76.0857 37.4051 76.1084 37.5131 76.1539 37.5927C76.1994 37.6666 76.2733 37.7234 76.3757 37.7632C76.478 37.7973 76.6088 37.8201 76.7679 37.8315C76.9328 37.8371 77.1318 37.84 77.3649 37.84V38.599C77.2171 38.599 77.0181 38.599 76.7679 38.599C76.5178 38.5933 76.2676 38.5904 76.0175 38.5904C75.7673 38.5904 75.5456 38.5904 75.3523 38.5904C75.159 38.5848 75.0453 38.5819 75.0112 38.5819C74.6871 38.5819 74.4 38.5848 74.1498 38.5904C73.9054 38.5961 73.6524 38.599 73.3909 38.599V37.84C73.6979 37.84 73.9366 37.8315 74.1072 37.8144C74.2778 37.7973 74.4028 37.7689 74.4824 37.7291C74.5677 37.6893 74.616 37.6353 74.6274 37.5671C74.6445 37.4932 74.653 37.3994 74.653 37.2857V32.0324C74.653 31.9528 74.6303 31.8931 74.5848 31.8533C74.545 31.8135 74.4768 31.7851 74.3801 31.768C74.2834 31.7453 74.1555 31.7339 73.9963 31.7339C73.8428 31.7282 73.6552 31.7254 73.4335 31.7254V30.9664C73.9167 30.9664 74.3716 30.9636 74.798 30.9579C75.2244 30.9522 75.6536 30.9408 76.0857 30.9238V37.2686Z" fill="#4D52BC"/>
<path d="M85.9236 30.7703C86.5206 30.7703 87.0692 30.8641 87.5695 31.0517C88.0698 31.2393 88.4991 31.5094 88.8572 31.8618C89.2211 32.2143 89.5025 32.6407 89.7015 33.141C89.9005 33.6414 90 34.19 90 34.787C90 35.3612 89.9005 35.8984 89.7015 36.3987C89.5025 36.8934 89.224 37.3169 88.8658 37.6694C88.5076 38.0219 88.0784 38.2948 87.578 38.4881C87.0777 38.6814 86.5263 38.7781 85.9236 38.7781C85.321 38.7781 84.7695 38.6843 84.2692 38.4966C83.7746 38.3033 83.3482 38.0304 82.99 37.6779C82.6318 37.3198 82.3532 36.8934 82.1542 36.3987C81.9609 35.8984 81.8643 35.3612 81.8643 34.787C81.8643 34.19 81.9638 33.6442 82.1628 33.1496C82.3617 32.6493 82.6403 32.2229 82.9985 31.8704C83.3567 31.5122 83.7831 31.2393 84.2777 31.0517C84.778 30.8641 85.3267 30.7703 85.9236 30.7703ZM85.9236 31.6572C85.5256 31.6572 85.1675 31.7311 84.8491 31.8789C84.5307 32.0267 84.2578 32.2342 84.0304 32.5014C83.8087 32.7687 83.6381 33.0984 83.5187 33.4907C83.3993 33.8773 83.3396 34.3065 83.3396 34.7784C83.3396 35.2219 83.3993 35.6398 83.5187 36.032C83.6438 36.4186 83.8172 36.7512 84.0389 37.0298C84.2663 37.3027 84.5392 37.5131 84.8576 37.6609C85.176 37.8087 85.5313 37.8826 85.9236 37.8826C86.3159 37.8826 86.6712 37.8087 86.9896 37.6609C87.308 37.5131 87.5809 37.3027 87.8083 37.0298C88.0357 36.7512 88.2091 36.4186 88.3285 36.032C88.4536 35.6398 88.5161 35.2219 88.5161 34.7784C88.5161 34.3122 88.4536 33.883 88.3285 33.4907C88.2091 33.0984 88.0357 32.7687 87.8083 32.5014C87.5866 32.2342 87.3137 32.0267 86.9896 31.8789C86.6712 31.7311 86.3159 31.6572 85.9236 31.6572Z" fill="#4D52BC"/>
<path d="M9.93735 27.5978V30.4121H8.99074V30.0624C8.99074 29.6872 8.97937 29.4001 8.95663 29.2011C8.93389 28.9964 8.89409 28.8486 8.83724 28.7577C8.78607 28.661 8.715 28.607 8.62404 28.5956C8.53876 28.5786 8.43358 28.57 8.3085 28.57H4.09567V32.51H6.54321C6.58869 32.51 6.63133 32.5128 6.67113 32.5185C6.71661 32.5185 6.75925 32.5185 6.79905 32.5185C6.86727 32.5185 6.92697 32.5128 6.97813 32.5014C7.0293 32.4844 7.07194 32.4503 7.10605 32.3991C7.14017 32.3479 7.16575 32.2769 7.18281 32.1859C7.20555 32.0893 7.21976 31.9585 7.22545 31.7936H7.83094V34.1047H7.22545C7.21976 33.9285 7.2027 33.792 7.17428 33.6954C7.14585 33.5987 7.10321 33.5277 7.04636 33.4822C6.9895 33.4367 6.92128 33.4111 6.84169 33.4054C6.76209 33.394 6.66828 33.3884 6.56026 33.3884H4.09567V37.1833C4.09567 37.3255 4.11557 37.4363 4.15536 37.5159C4.19516 37.5898 4.2577 37.6467 4.34298 37.6865C4.42826 37.7206 4.54197 37.7405 4.6841 37.7462C4.82623 37.7519 4.99964 37.7547 5.20431 37.7547H5.66482V38.599C5.48857 38.599 5.31517 38.599 5.14461 38.599C4.97974 38.599 4.80633 38.599 4.6244 38.599C4.44816 38.599 4.2577 38.599 4.05303 38.599C3.84835 38.5933 3.62378 38.5876 3.37931 38.5819C3.11779 38.5819 2.88185 38.5848 2.67149 38.5904C2.46682 38.5904 2.27067 38.5904 2.08306 38.5904C1.90113 38.5904 1.72204 38.5933 1.54579 38.599C1.36955 38.599 1.18762 38.599 1 38.599V37.7547H1.99778C2.12285 37.7547 2.22235 37.7405 2.29626 37.7121C2.37017 37.6836 2.42418 37.641 2.45829 37.5841C2.4924 37.5273 2.5123 37.4562 2.51799 37.3709C2.52936 37.2857 2.53504 37.1862 2.53504 37.0725V29.2096C2.53504 29.0675 2.5322 28.9481 2.52651 28.8515C2.52651 28.7491 2.50946 28.6695 2.47535 28.6127C2.44123 28.5501 2.38722 28.5075 2.31331 28.4848C2.2394 28.4563 2.13423 28.4421 1.99778 28.4421H1.05117V27.5978H9.93735Z" stroke="#4D52BC" stroke-width="0.4" mask="url(#path-1-outside-1_16_17)"/>
<path d="M15.4601 27.3846C15.7444 27.3846 15.9689 27.4557 16.1338 27.5978C16.2987 27.7343 16.3811 27.9248 16.3811 28.1692C16.3811 28.4194 16.2987 28.6184 16.1338 28.7662C15.9746 28.9083 15.75 28.9794 15.4601 28.9794C15.1758 28.9794 14.9541 28.9083 14.7949 28.7662C14.6357 28.624 14.5561 28.4251 14.5561 28.1692C14.5561 27.9248 14.6357 27.7343 14.7949 27.5978C14.9541 27.4557 15.1758 27.3846 15.4601 27.3846ZM16.3555 37.2686C16.3555 37.4051 16.3783 37.5131 16.4238 37.5927C16.4692 37.6666 16.5431 37.7234 16.6455 37.7632C16.7478 37.7973 16.8786 37.8201 17.0378 37.8315C17.2026 37.8371 17.4016 37.84 17.6347 37.84V38.599C17.4869 38.599 17.2879 38.599 17.0378 38.599C16.7876 38.5933 16.5375 38.5904 16.2873 38.5904C16.0372 38.5904 15.8154 38.5904 15.6221 38.5904C15.4288 38.5848 15.3151 38.5819 15.281 38.5819C14.9569 38.5819 14.6698 38.5848 14.4197 38.5904C14.1752 38.5961 13.9222 38.599 13.6607 38.599V37.84C13.9677 37.84 14.2065 37.8315 14.377 37.8144C14.5476 37.7973 14.6727 37.7689 14.7523 37.7291C14.8375 37.6893 14.8859 37.6353 14.8972 37.5671C14.9143 37.4932 14.9228 37.3994 14.9228 37.2857V32.0324C14.9228 31.9528 14.9001 31.8931 14.8546 31.8533C14.8148 31.8135 14.7466 31.7851 14.6499 31.768C14.5533 31.7453 14.4254 31.7339 14.2662 31.7339C14.1127 31.7282 13.9251 31.7254 13.7033 31.7254V30.9664C14.1866 30.9664 14.6414 30.9636 15.0678 30.9579C15.4942 30.9522 15.9234 30.9408 16.3555 30.9238V37.2686Z" stroke="#4D52BC" stroke-width="0.4" mask="url(#path-1-outside-1_16_17)"/>
<path d="M21.7418 37.84C22.0602 37.84 22.3075 37.8343 22.4838 37.8229C22.66 37.8116 22.7908 37.7888 22.876 37.7547C22.9613 37.7206 23.0125 37.6751 23.0296 37.6183C23.0466 37.5614 23.0551 37.4875 23.0551 37.3965V32.0068C23.0551 31.9386 23.0352 31.8846 22.9954 31.8448C22.9613 31.805 22.8959 31.7766 22.7993 31.7595C22.7083 31.7425 22.5804 31.7339 22.4155 31.7339C22.2563 31.7282 22.046 31.7254 21.7845 31.7254V30.9664C22.2905 30.9664 22.7567 30.9636 23.1831 30.9579C23.6095 30.9522 24.0273 30.9408 24.4367 30.9238V32.1262C24.8233 31.6884 25.2667 31.3559 25.767 31.1284C26.273 30.8953 26.8103 30.7759 27.3788 30.7703C28.2089 30.7759 28.8457 31.0034 29.2891 31.4525C29.7326 31.896 29.9543 32.6009 29.9543 33.5675V37.4903C29.9543 37.5813 29.9742 37.6495 30.014 37.695C30.0538 37.7405 30.1192 37.7746 30.2101 37.7973C30.3068 37.8144 30.4319 37.8258 30.5854 37.8315C30.7389 37.8315 30.9265 37.8343 31.1482 37.84V38.599C31.0118 38.599 30.8753 38.599 30.7389 38.599C30.6081 38.599 30.4688 38.599 30.321 38.599C30.1789 38.599 30.0254 38.599 29.8605 38.599C29.7013 38.5933 29.5222 38.5876 29.3232 38.5819C28.9082 38.5819 28.5358 38.5848 28.2061 38.5904C27.8763 38.5961 27.5466 38.599 27.2168 38.599V37.84C27.5409 37.84 27.791 37.8343 27.9673 37.8229C28.1435 37.8116 28.2714 37.7917 28.351 37.7632C28.4306 37.7291 28.4761 37.6893 28.4875 37.6438C28.5045 37.5927 28.5131 37.5273 28.5131 37.4477V34.0621C28.5131 33.6812 28.4903 33.3372 28.4448 33.0302C28.405 32.7175 28.3254 32.4617 28.2061 32.2627C28.0923 32.0637 27.9332 31.9159 27.7285 31.8192C27.5295 31.7169 27.2708 31.6629 26.9524 31.6572C26.6454 31.6629 26.364 31.714 26.1082 31.8107C25.8523 31.9073 25.6221 32.0267 25.4174 32.1689C25.2184 32.3053 25.0422 32.4531 24.8887 32.6123C24.7408 32.7658 24.6129 32.9108 24.5049 33.0472C24.4878 33.468 24.4793 33.9 24.4793 34.3435V37.4392C24.4793 37.5415 24.5021 37.6211 24.5475 37.6779C24.5987 37.7291 24.6755 37.7689 24.7778 37.7973C24.8858 37.8201 25.0194 37.8343 25.1786 37.84C25.3435 37.84 25.5425 37.84 25.7756 37.84V38.599C25.6278 38.599 25.4828 38.599 25.3406 38.599C25.1985 38.599 25.0507 38.599 24.8972 38.599C24.7494 38.599 24.5873 38.599 24.4111 38.599C24.2405 38.5933 24.0529 38.5876 23.8482 38.5819C23.4218 38.5819 23.0438 38.5848 22.714 38.5904C22.3843 38.5961 22.0602 38.599 21.7418 38.599V37.84Z" stroke="#4D52BC" stroke-width="0.4" mask="url(#path-1-outside-1_16_17)"/>
<path d="M42.4871 36.6887C42.4871 36.9843 42.4956 37.2118 42.5126 37.3709C42.5354 37.5244 42.5752 37.6382 42.632 37.7121C42.6889 37.7803 42.7685 37.8201 42.8708 37.8315C42.9788 37.8371 43.1181 37.84 43.2887 37.84H43.6724V38.599C43.2233 38.599 42.777 38.6018 42.3336 38.6075C41.8958 38.6132 41.4864 38.6217 41.1055 38.6331V37.4647C40.7644 37.9025 40.3579 38.2323 39.886 38.454C39.4198 38.67 38.874 38.7781 38.2486 38.7781C37.8393 38.7781 37.4697 38.7184 37.14 38.599C36.8102 38.4853 36.5288 38.3261 36.2957 38.1214C36.0626 37.9167 35.8807 37.6723 35.7499 37.388C35.6249 37.1037 35.5623 36.791 35.5623 36.4499C35.5623 36.0861 35.6362 35.7563 35.784 35.4607C35.9319 35.1593 36.1479 34.9035 36.4322 34.6931C36.7164 34.4828 37.0604 34.3208 37.4641 34.2071C37.8734 34.0877 38.3396 34.028 38.8627 34.028C39.2208 34.028 39.5818 34.0564 39.9457 34.1132C40.3096 34.1644 40.6791 34.2383 41.0544 34.335V33.1069C41.0544 32.5896 40.8809 32.1944 40.5341 31.9215C40.193 31.6486 39.6671 31.5122 38.9565 31.5122C38.3595 31.5122 37.8905 31.6287 37.5493 31.8618C37.2139 32.0893 36.9893 32.4446 36.8756 32.9278L36.091 32.834L36.2019 31.3331C36.5658 31.1682 36.9893 31.0346 37.4726 30.9323C37.9615 30.8243 38.5102 30.7703 39.1185 30.7703C39.7211 30.7703 40.2357 30.8243 40.6621 30.9323C41.0885 31.0403 41.4353 31.2052 41.7025 31.4269C41.9754 31.6486 42.1744 31.9329 42.2994 32.2797C42.4245 32.6208 42.4871 33.0245 42.4871 33.4907V36.6887ZM39.1867 34.7443C38.8456 34.7443 38.5386 34.7841 38.2657 34.8637C37.9928 34.9376 37.7597 35.0456 37.5664 35.1878C37.3788 35.3299 37.2338 35.5033 37.1315 35.708C37.0291 35.9127 36.978 36.1458 36.978 36.4073C36.978 36.6404 37.0178 36.8479 37.0974 37.0298C37.1826 37.2061 37.2992 37.3567 37.447 37.4818C37.6005 37.6069 37.7824 37.7064 37.9928 37.7803C38.2032 37.8542 38.4334 37.8883 38.6836 37.8826C38.9565 37.8883 39.2322 37.8485 39.5108 37.7632C39.795 37.6723 40.0509 37.5472 40.2783 37.388C40.5057 37.2231 40.6905 37.0185 40.8326 36.774C40.9804 36.5238 41.0544 36.2253 41.0544 35.8785V35.0428C40.7132 34.9461 40.3892 34.8722 40.0822 34.8211C39.7752 34.7699 39.4767 34.7443 39.1867 34.7443Z" stroke="#4D52BC" stroke-width="0.4" mask="url(#path-1-outside-1_16_17)"/>
<path d="M47.6772 37.84C47.9956 37.84 48.2429 37.8343 48.4191 37.8229C48.5954 37.8116 48.7262 37.7888 48.8114 37.7547C48.8967 37.7206 48.9479 37.6751 48.9649 37.6183C48.982 37.5614 48.9905 37.4875 48.9905 37.3965V32.0068C48.9905 31.9386 48.9706 31.8846 48.9308 31.8448C48.8967 31.805 48.8313 31.7766 48.7347 31.7595C48.6437 31.7425 48.5158 31.7339 48.3509 31.7339C48.1917 31.7282 47.9814 31.7254 47.7198 31.7254V30.9664C48.2258 30.9664 48.692 30.9636 49.1184 30.9579C49.5448 30.9522 49.9627 30.9408 50.3721 30.9238V32.1262C50.7587 31.6884 51.2021 31.3559 51.7024 31.1284C52.2084 30.8953 52.7457 30.7759 53.3142 30.7703C54.1443 30.7759 54.781 31.0034 55.2245 31.4525C55.6679 31.896 55.8897 32.6009 55.8897 33.5675V37.4903C55.8897 37.5813 55.9096 37.6495 55.9494 37.695C55.9892 37.7405 56.0546 37.7746 56.1455 37.7973C56.2422 37.8144 56.3672 37.8258 56.5207 37.8315C56.6743 37.8315 56.8619 37.8343 57.0836 37.84V38.599C56.9472 38.599 56.8107 38.599 56.6743 38.599C56.5435 38.599 56.4042 38.599 56.2564 38.599C56.1142 38.599 55.9607 38.599 55.7959 38.599C55.6367 38.5933 55.4576 38.5876 55.2586 38.5819C54.8436 38.5819 54.4712 38.5848 54.1414 38.5904C53.8117 38.5961 53.4819 38.599 53.1522 38.599V37.84C53.4762 37.84 53.7264 37.8343 53.9026 37.8229C54.0789 37.8116 54.2068 37.7917 54.2864 37.7632C54.366 37.7291 54.4115 37.6893 54.4229 37.6438C54.4399 37.5927 54.4484 37.5273 54.4484 37.4477V34.0621C54.4484 33.6812 54.4257 33.3372 54.3802 33.0302C54.3404 32.7175 54.2608 32.4617 54.1414 32.2627C54.0277 32.0637 53.8685 31.9159 53.6639 31.8192C53.4649 31.7169 53.2062 31.6629 52.8878 31.6572C52.5808 31.6629 52.2994 31.714 52.0435 31.8107C51.7877 31.9073 51.5574 32.0267 51.3528 32.1689C51.1538 32.3053 50.9775 32.4531 50.824 32.6123C50.6762 32.7658 50.5483 32.9108 50.4403 33.0472C50.4232 33.468 50.4147 33.9 50.4147 34.3435V37.4392C50.4147 37.5415 50.4374 37.6211 50.4829 37.6779C50.5341 37.7291 50.6108 37.7689 50.7132 37.7973C50.8212 37.8201 50.9548 37.8343 51.114 37.84C51.2789 37.84 51.4779 37.84 51.711 37.84V38.599C51.5631 38.599 51.4182 38.599 51.276 38.599C51.1339 38.599 50.9861 38.599 50.8326 38.599C50.6847 38.599 50.5227 38.599 50.3465 38.599C50.1759 38.5933 49.9883 38.5876 49.7836 38.5819C49.3572 38.5819 48.9791 38.5848 48.6494 38.5904C48.3196 38.5961 47.9956 38.599 47.6772 38.599V37.84Z" stroke="#4D52BC" stroke-width="0.4" mask="url(#path-1-outside-1_16_17)"/>
<path d="M68.5589 33.6868H67.7231C67.6947 32.9989 67.49 32.4901 67.1091 32.1603C66.7339 31.8249 66.2137 31.6572 65.5485 31.6572C65.1448 31.6572 64.7838 31.7311 64.4654 31.8789C64.1471 32.021 63.877 32.2257 63.6553 32.4929C63.4392 32.7601 63.2715 33.087 63.1521 33.4736C63.0384 33.8602 62.9816 34.2952 62.9816 34.7784C62.9816 35.2674 63.0413 35.6966 63.1607 36.0662C63.28 36.43 63.4506 36.7512 63.6723 37.0298C63.8997 37.3027 64.1726 37.5131 64.491 37.6609C64.8094 37.8087 65.1676 37.8826 65.5656 37.8826C66.1341 37.8826 66.6088 37.7433 66.9897 37.4647C67.3763 37.1862 67.6464 36.7683 67.7999 36.2111L68.7977 36.3817C68.7067 36.774 68.5617 37.1236 68.3627 37.4306C68.1694 37.732 67.9278 37.9764 67.6379 38.164C67.3479 38.3517 67.0153 38.4995 66.6401 38.6075C66.2648 38.7212 65.8527 38.7781 65.4035 38.7781C64.8066 38.7781 64.2665 38.6843 63.7832 38.4966C63.2999 38.3033 62.8878 38.0418 62.5466 37.7121C62.2055 37.3823 61.9412 36.973 61.7535 36.484C61.5659 35.9894 61.4721 35.4408 61.4721 34.8381C61.4721 34.2696 61.5631 33.7409 61.745 33.2519C61.9269 32.7573 62.1828 32.328 62.5125 31.9642C62.848 31.6003 63.2431 31.3104 63.6979 31.0943C64.1584 30.8783 64.6673 30.7703 65.2244 30.7703C65.4518 30.7703 65.6764 30.7845 65.8981 30.8129C66.1199 30.8413 66.3302 30.8897 66.5292 30.9579C66.7339 31.0261 66.9215 31.1199 67.0921 31.2393C67.2683 31.3587 67.4247 31.5065 67.5611 31.6828L67.7743 31.009C67.7971 31.009 67.8454 31.0119 67.9193 31.0176C67.9989 31.0176 68.0813 31.0176 68.1666 31.0176C68.2519 31.0176 68.3315 31.0204 68.4054 31.0261C68.485 31.0261 68.5361 31.0261 68.5589 31.0261V33.6868Z" stroke="#4D52BC" stroke-width="0.4" mask="url(#path-1-outside-1_16_17)"/>
<path d="M75.1903 27.3846C75.4745 27.3846 75.6991 27.4557 75.864 27.5978C76.0288 27.7343 76.1113 27.9248 76.1113 28.1692C76.1113 28.4194 76.0288 28.6184 75.864 28.7662C75.7048 28.9083 75.4802 28.9794 75.1903 28.9794C74.906 28.9794 74.6843 28.9083 74.5251 28.7662C74.3659 28.624 74.2863 28.4251 74.2863 28.1692C74.2863 27.9248 74.3659 27.7343 74.5251 27.5978C74.6843 27.4557 74.906 27.3846 75.1903 27.3846ZM76.0857 37.2686C76.0857 37.4051 76.1084 37.5131 76.1539 37.5927C76.1994 37.6666 76.2733 37.7234 76.3757 37.7632C76.478 37.7973 76.6088 37.8201 76.7679 37.8315C76.9328 37.8371 77.1318 37.84 77.3649 37.84V38.599C77.2171 38.599 77.0181 38.599 76.7679 38.599C76.5178 38.5933 76.2676 38.5904 76.0175 38.5904C75.7673 38.5904 75.5456 38.5904 75.3523 38.5904C75.159 38.5848 75.0453 38.5819 75.0112 38.5819C74.6871 38.5819 74.4 38.5848 74.1498 38.5904C73.9054 38.5961 73.6524 38.599 73.3909 38.599V37.84C73.6979 37.84 73.9366 37.8315 74.1072 37.8144C74.2778 37.7973 74.4028 37.7689 74.4824 37.7291C74.5677 37.6893 74.616 37.6353 74.6274 37.5671C74.6445 37.4932 74.653 37.3994 74.653 37.2857V32.0324C74.653 31.9528 74.6303 31.8931 74.5848 31.8533C74.545 31.8135 74.4768 31.7851 74.3801 31.768C74.2834 31.7453 74.1555 31.7339 73.9963 31.7339C73.8428 31.7282 73.6552 31.7254 73.4335 31.7254V30.9664C73.9167 30.9664 74.3716 30.9636 74.798 30.9579C75.2244 30.9522 75.6536 30.9408 76.0857 30.9238V37.2686Z" stroke="#4D52BC" stroke-width="0.4" mask="url(#path-1-outside-1_16_17)"/>
<path d="M85.9236 30.7703C86.5206 30.7703 87.0692 30.8641 87.5695 31.0517C88.0698 31.2393 88.4991 31.5094 88.8572 31.8618C89.2211 32.2143 89.5025 32.6407 89.7015 33.141C89.9005 33.6414 90 34.19 90 34.787C90 35.3612 89.9005 35.8984 89.7015 36.3987C89.5025 36.8934 89.224 37.3169 88.8658 37.6694C88.5076 38.0219 88.0784 38.2948 87.578 38.4881C87.0777 38.6814 86.5263 38.7781 85.9236 38.7781C85.321 38.7781 84.7695 38.6843 84.2692 38.4966C83.7746 38.3033 83.3482 38.0304 82.99 37.6779C82.6318 37.3198 82.3532 36.8934 82.1542 36.3987C81.9609 35.8984 81.8643 35.3612 81.8643 34.787C81.8643 34.19 81.9638 33.6442 82.1628 33.1496C82.3617 32.6493 82.6403 32.2229 82.9985 31.8704C83.3567 31.5122 83.7831 31.2393 84.2777 31.0517C84.778 30.8641 85.3267 30.7703 85.9236 30.7703ZM85.9236 31.6572C85.5256 31.6572 85.1675 31.7311 84.8491 31.8789C84.5307 32.0267 84.2578 32.2342 84.0304 32.5014C83.8087 32.7687 83.6381 33.0984 83.5187 33.4907C83.3993 33.8773 83.3396 34.3065 83.3396 34.7784C83.3396 35.2219 83.3993 35.6398 83.5187 36.032C83.6438 36.4186 83.8172 36.7512 84.0389 37.0298C84.2663 37.3027 84.5392 37.5131 84.8576 37.6609C85.176 37.8087 85.5313 37.8826 85.9236 37.8826C86.3159 37.8826 86.6712 37.8087 86.9896 37.6609C87.308 37.5131 87.5809 37.3027 87.8083 37.0298C88.0357 36.7512 88.2091 36.4186 88.3285 36.032C88.4536 35.6398 88.5161 35.2219 88.5161 34.7784C88.5161 34.3122 88.4536 33.883 88.3285 33.4907C88.2091 33.0984 88.0357 32.7687 87.8083 32.5014C87.5866 32.2342 87.3137 32.0267 86.9896 31.8789C86.6712 31.7311 86.3159 31.6572 85.9236 31.6572Z" stroke="#4D52BC" stroke-width="0.4" mask="url(#path-1-outside-1_16_17)"/>
<path d="M66.4667 1H29.4741V4.51733H34.3256L35.6598 5.24505V25.2574H42.2093H54.8232L55.3083 27.9258H57.734V18.7079H55.3083L54.8232 21.3763H42.2093V5.24505H62.5855V12.6436H66.4667V1Z" fill="#4D52BC"/>
<path d="M43.3009 57.0347L42.2093 55.5793V44.057H35.5385V55.5793L34.3256 57.0347H29.4741V60.6733H48.5162V57.0347H43.3009Z" fill="#4D52BC"/>
<path d="M66.4667 1H29.4741V4.51733H34.3256L35.6598 5.24505V25.2574H42.2093H54.8232L55.3083 27.9258H57.734V18.7079H55.3083L54.8232 21.3763H42.2093V5.24505H62.5855V12.6436H66.4667V1Z" stroke="#4D52BC"/>
<path d="M43.3009 57.0347L42.2093 55.5793V44.057H35.5385V55.5793L34.3256 57.0347H29.4741V60.6733H48.5162V57.0347H43.3009Z" stroke="#4D52BC"/>
</svg>
